<svg id="레이어_1" data-name="레이어 1" xmlns="http://www.w3.org/2000/svg" viewBox="0 0 148.19 148.13"><defs><style>.cls-1{fill:none;}.cls-1,.cls-2{stroke:#fff;stroke-miterlimit:10;stroke-width:5px;}.cls-2{fill:#fff;}</style></defs><title>motels_combine_white_대지 1</title><path class="cls-1" d="M75,55.81,37.94,4.23,3.51,55.81" transform="translate(-1.43 0.31)"/><line class="cls-2" x1="60.11" y1="56.12" x2="89" y2="56.12"/><line class="cls-2" x1="74.55" y1="73" x2="74.55" y2="56.12"/><ellipse class="cls-2" cx="42.99" cy="82.23" rx="9.9" ry="10.1"/><ellipse class="cls-2" cx="74.29" cy="111.06" rx="5.31" ry="5.41"/><line class="cls-2" x1="70.36" y1="111.36" x2="4.44" y2="83.7"/><line class="cls-2" x1="0.57" y1="111.36" x2="70.36" y2="111.36"/><line class="cls-2" x1="70.36" y1="111.36" x2="4.44" y2="139.01"/><line class="cls-2" x1="77.77" y1="112.52" x2="143.69" y2="84.86"/><line class="cls-2" x1="147.57" y1="112.52" x2="77.77" y2="112.52"/><line class="cls-2" x1="77.77" y1="112.52" x2="143.69" y2="140.17"/><ellipse class="cls-2" cx="105.69" cy="82.23" rx="9.9" ry="10.1"/><path class="cls-1" d="M46.49,130.22C47.72,140.55,57,146.83,64.59,145c5.79-1.39,10.46-7.42,10.87-14.78" transform="translate(-1.43 0.31)"/><path class="cls-1" d="M104.92,129.77c-1.23,10.34-10.49,16.61-18.11,14.78C81,143.16,76.35,137.14,76,129.77" transform="translate(-1.43 0.31)"/><path class="cls-1" d="M147.59,55.66,110.51,4.08,76.08,55.66" transform="translate(-1.43 0.31)"/></svg>